<svg xmlns="http://www.w3.org/2000/svg" width="612" height="442" fill="none" viewBox="0 0 612 442">
  <g clip-path="url(#a)">
    <path fill="#242321" d="M329.516 352.125c-5.151 23.14 6.645 38.343 13.187 43.052.612.498 1.744 1.906 1.376 3.559.275 2.663-5.933 5.547-9.071 6.655-2.028.994-6.888 1.72-10.101-3.332-4.015-6.315-3.203-34.325.016-48.788 3.219-14.463 6.782-25.597 20.451-52.913 13.67-27.317 39.62-46.479 50.297-50.608l1.603 12.283c-2.663.275-5.013 1.414-5.855 1.95-12.4 6.998-25.49 17.096-33.644 29.376l-9.878 15.15c-10.016 17.721-16.427 36.461-18.381 43.616Z"/>
    <path stroke="#242321" stroke-width="1.8" d="M498.632 279.171c-7.843-2.107-31.428-7.862-63.017-14.026-10.599-2.72-28.123-5.175-38.341-3.112-13.591-1.29-6.732-8.726-1.603-12.283 10.677-4.129 17.456-19.969 17.112-23.298-.343-3.329 2.876-17.792 7.358-33.058 4.482-15.267 28.259-58.766 39.399-74.719C468.453 105.913 483 99 489.852 99.4c31.682 3.799 46.829 23.433 50.041 28.485 2.571 4.042 15.377 18.602 21.459 25.377 7.987 6.982 6.003 13.624 4.012 16.073-.92 4.132-15.043 14-19.061 17.442-4.019 3.443-1.723 2.87.343 3.329 1.653.368 10.715-2.675 15.039-4.242 14.695-3.669 25.941 10.11 29.726 17.459 9.521 20.551 14.677 50.973 16.28 63.257 1.283 9.827-4.673 14.501-7.811 15.609-8.572 2.791-30.194 8.026-48.101 6.642-17.908-1.383-42.893-7.016-53.147-9.66Z"/>
    <path stroke="#242321" stroke-width="1.8" d="M401.986 245.734c4.44-3.71 15.64-14.734 24.92-29.15 4.819-7.484 10.806-14.335 18.858-20.74m-43.778 49.89c16-16.678 45.34-57.566 34.697-87.692m-34.697 87.692c6.665-1.044 20.682-4.948 37.939-13.241m32.096-18.878c19.014-11.382 32.339-13.765 36.624-13.534 7.194.155 24.883-2.503 35.355-10.581m-71.979 24.115c3.638-8.226 16.976-26.581 41.223-34.195 30.309-9.518 36.737-9.172 48.911-24.895m-90.134 59.09c-11.246 7.927-22.203 14.124-32.096 18.878m98.362-107.133-.23 1.033c-3.449 15.496-5.865 31.222-43.522 44.526-8.995 3.177-16.889 6.414-23.854 9.747m0 0c-4.234 2.026-8.124 4.086-11.709 6.191-4.952 2.906-9.32 5.894-13.208 8.987m24.917-15.178c6.995-3.824 21.422-14.409 23.171-26.163 2.186-14.693 6.208-27.893 10.457-32.369 4.249-4.476 9.188-12.05 9.647-14.117l.23-1.033m-68.422 88.86c6.757-5.363 20.301-18.685 20.418-29.067.118-10.383-1.937-14.888-2.979-15.843-2.469-6.332-5.734-22.744.955-37.736m-24.233 119.295c12.842-6.177 43.989-17.749 65.845-14.62m0 0c27.32 3.912 72.671-19.606 76.117-25.344m-76.117 25.344c9.603 3.945 32.254 9.998 46.031 2.656 13.778-7.343 32.912-11.469 40.757-12.614m-189.659 53.202c2.526-1.607 7.794-2.048 14.29-4.41m183.397-26.405c-18.939-7.468-23.991-4.255-39.49 2.054-12.4 5.046-34.555 4.236-44.082 3.199-14.19-2.758-27.161-3.03-38.635-1.79m0 0c-19.621 2.121-34.866 8.665-44.342 14.766-5.463 3.518-11.429 6.206-16.848 8.176m61.19-22.942c8.669.021 29.566 2.591 43.797 12.698 3.49 2.478 6.812 4.961 10.303 7.294m74.639 10.527c-43.186 6.076-60.334-.968-74.639-10.527m0 0c10.262 4.231 34.254 9.779 48.126-1.88 4.286-3.021 14.926-8.605 23.19-6.765m-186.606 11.595c9.934-2.908 27.962-5.029 45.214.121m28.998 20.734c-8.005-10.446-18.236-17.521-28.998-20.734m0 0c4.387 1.4 15.044 3.533 22.576.872 9.414-3.326 18.942-2.29 44.645 28.369M322.308 104.542c-4.053 6.529-15.615 26.253-29.438 52.922-5.34 8.842-11.969 23.793-12.074 33.075-4.481 11.695-10.925 4.485-13.587-.582-2.016-10.019-17.525-18.516-21.186-18.754-3.662-.237-18.499-5.395-33.913-11.789-15.414-6.394-56.83-34.251-71.469-46.587-11.71-9.869-16.141-23.327-13.852-29.663 11.298-27.133 35.881-37.223 42.051-39.22 4.935-1.597 23.523-10.459 32.2-14.69 9.334-5.866 16.032-3.054 18.215-.915 4.239 1.474 11.648 15.438 14.439 19.514 2.791 4.077 2.697 1.973 3.662.238.772-1.388-.442-9.816-1.145-13.857-.605-13.463 16.786-21.084 25.558-23.211 24.29-5.016 58.212-4.612 71.8-4.03 10.87.466 14.547 6.438 15.026 9.365 1.053 7.959 1.769 27.741-3.795 43.2-5.564 15.46-17.313 36.431-22.492 44.984Z"/>
    <path stroke="#242321" stroke-width="1.8" d="M264.322 183.777c-2.983-4.488-12.302-16.08-25.708-26.538-6.961-5.43-12.974-11.781-18.037-19.869m43.745 46.407c-14.313-16.71-51.652-49.016-86.504-44.566m86.504 44.566c.393-6.005-.62-18.913-5.621-35.367m-13.019-31.163c-7.925-18.492-7.459-30.547-6.235-34.263 1.804-6.275 3.366-22.007-2.947-32.484m9.182 66.747c-8.027-4.516-24.751-19.164-27.431-41.631-3.349-28.083-1.513-33.657-15.669-46.86m43.1 88.491c5.975 11.132 10.152 21.73 13.019 31.163M165.755 44.942l1.06.369c15.896 5.526 32.275 10.185 38.028 45.315 1.374 8.392 3.063 15.829 5.065 22.468m0 0c1.217 4.035 2.551 7.776 4 11.256 2.002 4.806 4.225 9.115 6.669 13.02m-10.669-24.276c-2.524-6.744-10.636-21.091-22.892-24.523-15.319-4.29-28.614-9.948-32.465-14.392-3.851-4.445-10.881-9.995-13.001-10.732l-1.06-.369m80.087 74.292c-4.235-6.785-15.494-20.8-26.644-22.582-11.15-1.782-16.467-.711-17.732.047-7.379 1.139-25.789 1.345-40.405-6.938m122.905 40.513c-3.728-12.246-9.098-41.395-.755-60.03m0 0c10.427-23.294-4.57-66.815-9.964-70.76m9.964 70.76c6.431-7.773 18.101-26.631 13.332-39.885-4.769-13.254-4.857-30.678-4.305-37.733m14.117 174.702c-1.155-2.471-.431-7.157-1.496-13.227M292.9 7.35c-12.349 15.38-10.04 20.323-6.775 34.917 2.611 11.676-3.303 30.948-6.586 39.124-6.198 11.981-9.443 23.297-10.719 33.547m0 0c-2.181 17.527 1.394 31.936 5.806 41.221 2.544 5.354 4.081 11.014 4.968 16.078m-10.774-57.299c1.996-7.589 9.517-25.475 23.635-36.304 3.462-2.656 6.89-5.164 10.196-7.844m28.316-63.666c-3.286 38.805-14.771 52.683-28.316 63.666m0 0c6.89-8.303 18.321-28.418 8.927-42.452-2.277-4.242-5.866-14.463-2.006-21.404m-29.978 165.303c-.87-9.171.949-25.302 10.419-39.579m28.917-22.043c-13.066 5.322-23.01 13.137-28.917 22.043m0 0c2.504-3.616 7.225-12.604 6.075-19.63-1.438-8.783 1.845-16.96 40.697-34.513"/>
    <path fill="#242321" stroke="#242321" stroke-width="1.8" d="M284.232 212.811c-3.016-10.253-3.267-19.852-3.016-23.37-3.618 10.252-9.549 6.785-12.062 3.769.754 2.513 3.77 10.554 9.801 22.616 7.539 15.078 12.816 41.464 14.323 61.819 1.508 20.354-8.292 26.385-9.046 27.139-.603.603-.754 1.257-.754 1.508-.754 3.015 5.277 9.046 8.293 9.8 2.412.603 4.523-1.256 5.277-2.261.502-.754 1.96-2.865 3.769-5.277 2.262-3.016 3.016-9.047 1.508-13.57-1.508-4.524-3.016-10.555-3.016-15.078s-.753-9.046-2.261-16.585c-1.508-7.539-9.047-37.694-12.816-50.51Z"/>
    <path fill="#242321" d="M205.828 257.29c16.887 0 25.632 10.554 27.894 15.831.251.503 1.055 1.508 2.262 1.508 1.809.603 4.774-3.267 6.031-5.277 1.005-1.257 2.261-4.523-.754-7.539-3.77-3.769-23.37-7.539-33.925-7.539-10.554 0-18.847.754-39.955 6.031-21.109 5.277-38.448 20.355-42.971 27.14l8.292 3.015c.603-1.809 1.759-3.266 2.262-3.769 6.785-7.539 15.831-15.078 25.632-18.847l12.062-4.523c13.871-4.222 27.893-5.78 33.17-6.031Z"/>
    <path stroke="#242321" stroke-width="1.8" d="M128.933 363.587c-.251-5.78-.603-23.069 0-45.987-.251-7.79.754-20.355 3.769-27.14 1.207-9.649-5.026-6.031-8.292-3.015-4.523 6.785-16.586 9.046-18.847 8.293-2.262-.754-12.816-.754-24.124 0-11.309.753-45.233 10.554-58.049 15.831-10.253 4.222-16.334 13.821-18.093 18.093-2.262 22.617 9.046 36.186 12.062 39.202 2.412 2.412 10.554 13.57 14.324 18.847 3.618 6.634 8.544 6.282 10.554 5.277 3.015 0 12.062-8.293 15.077-10.554 3.016-2.262 2.262-.754 2.262.754 0 1.206-3.518 7.036-5.277 9.8-4.825 9.65 3.015 19.601 7.539 23.37 12.816 9.801 33.17 18.093 41.463 21.109 6.634 2.412 10.806-1.005 12.062-3.016 3.267-5.528 10.253-19.751 12.062-32.417 1.809-12.665 1.759-30.909 1.508-38.447Z"/>
    <path stroke="#242321" stroke-width="1.8" d="M120.64 291.214c-3.267 2.513-12.665 8.595-24.124 12.816-5.95 2.192-11.64 5.295-17.339 9.902m41.463-22.718c-14.072 8.544-47.042 22.617-66.341 10.555m66.341-10.555c-1.757 4.473-6.641 13.615-15.077 24.33M87.47 334.939c-10.856 11.459-14.575 20.355-15.078 23.371-1.005 5.025-4.825 16.585-12.062 22.616m27.14-45.987c-6.283 1.257-21.109 7.69-30.155 23.371-11.309 19.6-12.063 24.124-24.878 30.155m55.033-53.526a160.5 160.5 0 0 0 18.093-19.395m-89.712 51.812h.754c11.308 0 22.616.754 37.694-23.37 3.602-5.763 7.074-10.751 10.469-15.078m0 0a111.81 111.81 0 0 1 6.116-7.183c2.787-2.993 5.541-5.568 8.293-7.793m-14.41 14.976c-3.74 4.272-13.333 12.665-21.776 12.062-10.554-.754-20.355 0-24.124 2.262-3.77 2.262-9.8 4.523-11.308 4.523h-.754m72.372-33.823c-4.775 3.869-16.133 11.224-23.37 9.699-7.238-1.525-10.052-3.651-10.555-4.523-4.02-2.697-14.926-7.507-26.385-5.176m86.696 1.612c-6.283 7.973-19.149 27.839-20.355 43.519m0 0c-1.508 19.601-24.878 47.495-29.401 49.003m29.401-49.003c1.257 7.288 1.96 23.974-5.277 32.417-7.237 8.444-13.067 21.109-15.078 26.386m66.342-123.636c-1.508 1.508-2.63 5.102-5.278 9.253m-46.74 123.429c-2.262-14.323.754-17.339 7.539-27.139 5.428-7.84 8.292-23.37 9.046-30.155.278-10.293 2.096-19.354 4.734-27.14m0 0c4.511-13.315 11.42-22.901 17.129-28.546 3.291-3.254 6.084-6.986 8.292-10.449m-25.421 38.995c-1.326 6.031-2.774 20.958 2.051 32.417 1.183 2.81 2.396 5.504 3.477 8.293m-4.231 53.525c10.908-29.087 8.664-42.1 4.231-53.525m0 0c1.354 7.79 1.499 25.33-8.754 33.17-2.764 2.513-8.293 9.047-8.293 15.078m36.94-127.953c-3.559 6.457-7.824 18.664-6.913 31.456m9.929 23.371c-6.024-7.183-9.36-15.391-9.929-23.371m0 0c.294 3.267.129 11.007-2.887 15.832-3.769 6.031-4.523 12.816 12.816 35.432"/>
    <path stroke="#242321" stroke-width="1.8" d="M205.828 257.29c16.887 0 25.632 10.554 27.894 15.831.251.503 1.055 1.508 2.262 1.508 1.809.603 4.774-3.267 6.031-5.277 1.005-1.257 2.261-4.523-.754-7.539-3.77-3.769-23.37-7.539-33.925-7.539-10.554 0-18.847.754-39.955 6.031-21.109 5.277-38.448 20.355-42.971 27.14-4.523 6.785-16.586 9.046-18.847 8.293-2.262-.754-12.816-.754-24.124 0-11.309.753-45.233 10.554-58.049 15.831-10.253 4.222-16.334 13.821-18.093 18.093-2.262 22.617 9.046 36.186 12.062 39.202 2.412 2.412 10.554 13.57 14.324 18.847 3.618 6.634 6.784 6.031 10.554 5.277 3.77-.754 11.992-8.389 15.078-10.554 3.5-2.457 3.014-1.057 2.261.754-.463 1.113-3.518 7.036-5.277 9.8-4.825 9.65 3.015 19.601 7.539 23.37 12.816 9.801 33.17 18.093 41.463 21.109 6.634 2.412 10.806-1.005 12.062-3.016 3.267-5.528 10.253-19.751 12.062-32.417 1.809-12.665 1.759-30.909 1.508-38.447-.251-5.78-.603-23.069 0-45.987-.251-7.79.603-24.878 6.031-30.909 6.785-7.539 15.831-15.078 25.632-18.847l12.062-4.523c13.871-4.222 27.893-5.78 33.17-6.031Z"/>
  </g>
  <defs>
    <clipPath id="a">
      <path fill="#fff" d="M0 0h612v442H0z"/>
    </clipPath>
  </defs>
</svg>
