<svg xmlns="http://www.w3.org/2000/svg" width="241" height="104" fill="none" viewBox="0 0 241 104">
  <path fill="#000" d="M11.754 85.454 7.02 98H5.13L.396 85.454h1.746l3.942 10.818 3.942-10.818h1.728ZM22.55 92.69c0 .312-.018.642-.054.99h-7.884c.06.972.39 1.734.99 2.286.612.54 1.35.81 2.214.81.708 0 1.296-.162 1.764-.486.48-.336.816-.78 1.008-1.332h1.764a4.284 4.284 0 0 1-1.584 2.322c-.792.588-1.776.882-2.952.882-.936 0-1.776-.21-2.52-.63a4.492 4.492 0 0 1-1.728-1.782c-.42-.78-.63-1.68-.63-2.7 0-1.02.204-1.914.612-2.682a4.254 4.254 0 0 1 1.71-1.764c.744-.42 1.596-.63 2.556-.63.936 0 1.764.204 2.484.612.72.408 1.272.972 1.656 1.692.396.708.594 1.512.594 2.412Zm-1.692-.342c0-.624-.138-1.158-.414-1.602a2.605 2.605 0 0 0-1.134-1.026c-.468-.24-.99-.36-1.566-.36-.828 0-1.536.264-2.124.792-.576.528-.906 1.26-.99 2.196h6.228Zm5.492-2.61a3.16 3.16 0 0 1 1.224-1.314c.54-.312 1.194-.468 1.962-.468v1.692h-.432c-1.836 0-2.754.996-2.754 2.988V98h-1.638v-9.864h1.638v1.602Zm6.715-5.058V98h-1.638V84.68h1.638Zm3.638 1.854c-.312 0-.576-.108-.792-.324a1.077 1.077 0 0 1-.324-.792c0-.312.108-.576.324-.792.216-.216.48-.324.792-.324.3 0 .552.108.756.324.216.216.324.48.324.792 0 .312-.108.576-.324.792a.998.998 0 0 1-.756.324Zm.792 1.602V98h-1.638v-9.864h1.638Zm11.791 4.554c0 .312-.018.642-.054.99h-7.884c.06.972.39 1.734.99 2.286.612.54 1.35.81 2.214.81.708 0 1.296-.162 1.764-.486.48-.336.816-.78 1.008-1.332h1.764a4.284 4.284 0 0 1-1.584 2.322c-.792.588-1.776.882-2.952.882-.936 0-1.776-.21-2.52-.63a4.492 4.492 0 0 1-1.728-1.782c-.42-.78-.63-1.68-.63-2.7 0-1.02.204-1.914.612-2.682a4.254 4.254 0 0 1 1.71-1.764c.744-.42 1.596-.63 2.556-.63.936 0 1.764.204 2.484.612.72.408 1.272.972 1.656 1.692.396.708.594 1.512.594 2.412Zm-1.692-.342c0-.624-.138-1.158-.414-1.602a2.605 2.605 0 0 0-1.134-1.026c-.468-.24-.99-.36-1.566-.36-.828 0-1.536.264-2.124.792-.576.528-.906 1.26-.99 2.196h6.228Zm7.346 5.814c-.755 0-1.433-.126-2.033-.378-.6-.264-1.074-.624-1.422-1.08a2.92 2.92 0 0 1-.577-1.602H52.6c.048.492.276.894.684 1.206.42.312.967.468 1.639.468.623 0 1.115-.138 1.475-.414.36-.276.54-.624.54-1.044 0-.432-.192-.75-.576-.954-.384-.216-.977-.426-1.782-.63a14.665 14.665 0 0 1-1.8-.576 3.418 3.418 0 0 1-1.188-.882c-.323-.396-.486-.912-.486-1.548 0-.504.15-.966.45-1.386.3-.42.727-.75 1.279-.99.551-.252 1.181-.378 1.89-.378 1.091 0 1.974.276 2.645.828.672.552 1.033 1.308 1.08 2.268h-1.638c-.035-.516-.245-.93-.63-1.242-.372-.312-.876-.468-1.512-.468-.587 0-1.056.126-1.404.378-.347.252-.521.582-.521.99 0 .324.102.594.306.81.215.204.48.372.791.504.325.12.769.258 1.333.414.708.192 1.284.384 1.728.576.444.18.822.456 1.133.828.325.372.492.858.505 1.458 0 .54-.15 1.026-.45 1.458-.3.432-.727.774-1.279 1.026-.54.24-1.163.36-1.871.36Zm116.862-2.952h-5.472L165.322 98h-1.728l4.536-12.474h1.89L174.538 98h-1.728l-1.008-2.79Zm-.468-1.332-2.268-6.336-2.268 6.336h4.536Zm9.195-4.392h-2.07V98h-1.638v-8.514h-1.278v-1.35h1.278v-.702c0-1.104.282-1.908.846-2.412.576-.516 1.494-.774 2.754-.774v1.368c-.72 0-1.23.144-1.53.432-.288.276-.432.738-.432 1.386v.702h2.07v1.35Zm3.548-4.806V98h-1.638V84.68h1.638Zm11.791 8.01c0 .312-.018.642-.054.99h-7.884c.06.972.39 1.734.99 2.286.612.54 1.35.81 2.214.81.708 0 1.296-.162 1.764-.486.48-.336.816-.78 1.008-1.332h1.764a4.284 4.284 0 0 1-1.584 2.322c-.792.588-1.776.882-2.952.882-.936 0-1.776-.21-2.52-.63a4.492 4.492 0 0 1-1.728-1.782c-.42-.78-.63-1.68-.63-2.7 0-1.02.204-1.914.612-2.682a4.254 4.254 0 0 1 1.71-1.764c.744-.42 1.596-.63 2.556-.63.936 0 1.764.204 2.484.612.72.408 1.272.972 1.656 1.692.396.708.594 1.512.594 2.412Zm-1.692-.342c0-.624-.138-1.158-.414-1.602a2.605 2.605 0 0 0-1.134-1.026c-.468-.24-.99-.36-1.566-.36-.828 0-1.536.264-2.124.792-.576.528-.906 1.26-.99 2.196h6.228Zm4.701-5.814c-.312 0-.576-.108-.792-.324a1.077 1.077 0 0 1-.324-.792c0-.312.108-.576.324-.792.216-.216.48-.324.792-.324.3 0 .552.108.756.324.216.216.324.48.324.792 0 .312-.108.576-.324.792a.998.998 0 0 1-.756.324Zm.792 1.602V98h-1.638v-9.864h1.638Zm2.179 4.896c0-1.008.204-1.89.612-2.646a4.446 4.446 0 0 1 1.674-1.782c.72-.42 1.524-.63 2.412-.63.768 0 1.482.18 2.142.54.66.348 1.164.81 1.512 1.386v-5.22h1.656V98H210.2v-1.854c-.324.588-.804 1.074-1.44 1.458-.636.372-1.38.558-2.232.558a4.564 4.564 0 0 1-2.394-.648c-.708-.432-1.266-1.038-1.674-1.818-.408-.78-.612-1.668-.612-2.664Zm8.352.018c0-.744-.15-1.392-.45-1.944a3.098 3.098 0 0 0-1.224-1.26 3.211 3.211 0 0 0-1.674-.45c-.612 0-1.17.144-1.674.432a3.134 3.134 0 0 0-1.206 1.26c-.3.552-.45 1.2-.45 1.944 0 .756.15 1.416.45 1.98.3.552.702.978 1.206 1.278a3.314 3.314 0 0 0 1.674.432c.612 0 1.17-.144 1.674-.432.516-.3.924-.726 1.224-1.278.3-.564.45-1.218.45-1.962Zm5.27-6.516c-.312 0-.576-.108-.792-.324a1.077 1.077 0 0 1-.324-.792c0-.312.108-.576.324-.792.216-.216.48-.324.792-.324.3 0 .552.108.756.324.216.216.324.48.324.792 0 .312-.108.576-.324.792a.998.998 0 0 1-.756.324Zm.792 1.602V98h-1.638v-9.864h1.638Zm7.598-.18c1.2 0 2.172.366 2.916 1.098.744.72 1.116 1.764 1.116 3.132V98h-1.62v-5.58c0-.984-.246-1.734-.738-2.25-.492-.528-1.164-.792-2.016-.792-.864 0-1.554.27-2.07.81-.504.54-.756 1.326-.756 2.358V98h-1.638v-9.864h1.638v1.404a3.266 3.266 0 0 1 1.314-1.17 4.16 4.16 0 0 1 1.854-.414Zm10.776.018c.852 0 1.596.186 2.232.558.648.372 1.128.84 1.44 1.404v-1.8h1.656v10.08c0 .9-.192 1.698-.576 2.394a4.076 4.076 0 0 1-1.656 1.656c-.708.396-1.536.594-2.484.594-1.296 0-2.376-.306-3.24-.918-.864-.612-1.374-1.446-1.53-2.502h1.62c.18.6.552 1.08 1.116 1.44.564.372 1.242.558 2.034.558.9 0 1.632-.282 2.196-.846.576-.564.864-1.356.864-2.376v-2.07c-.324.576-.804 1.056-1.44 1.44-.636.384-1.38.576-2.232.576a4.564 4.564 0 0 1-2.394-.648c-.708-.432-1.266-1.038-1.674-1.818-.408-.78-.612-1.668-.612-2.664 0-1.008.204-1.89.612-2.646a4.446 4.446 0 0 1 1.674-1.782c.72-.42 1.518-.63 2.394-.63Zm3.672 5.076c0-.744-.15-1.392-.45-1.944a3.098 3.098 0 0 0-1.224-1.26 3.211 3.211 0 0 0-1.674-.45c-.612 0-1.17.144-1.674.432a3.134 3.134 0 0 0-1.206 1.26c-.3.552-.45 1.2-.45 1.944 0 .756.15 1.416.45 1.98.3.552.702.978 1.206 1.278a3.314 3.314 0 0 0 1.674.432c.612 0 1.17-.144 1.674-.432.516-.3.924-.726 1.224-1.278.3-.564.45-1.218.45-1.962Z"/>
  <path stroke="#000" stroke-miterlimit="10" stroke-width=".557" d="M72 69.543h35.844s-6.863 9.44-17.568 9.44c-10.705 0-15.064-6.044-18.276-9.44Zm2.279 0 14.17-44.58c.008-.024.044-.027.052-.002l17.193 44.582H74.279Z"/>
  <path stroke="#000" stroke-miterlimit="10" stroke-width=".557" d="M143.345 16.134c-9.036-3.298-14.342-1.326-14.342-1.326s-3.602 1.053-5.27 3.047l-.067.095s-1.374-6.44-1.374-10.053V3h-2.674v4.897c0 3.615-1.373 10.053-1.373 10.053l-.067-.095c-1.668-1.997-5.27-3.047-5.27-3.047s-5.306-1.972-14.343 1.326c-9.036 3.298-14.601 4.005-14.601 4.005l.841 4.747h34.148l-.922 56.643v1.97c0 .139.022.275.058.41.677 2.33.699 4.342.641 5.406a3.319 3.319 0 0 1-.507 1.604c-4.106 6.398-22.477 10.964-22.477 10.964h50.418s-18.37-4.566-22.476-10.964a3.319 3.319 0 0 1-.507-1.604 16.562 16.562 0 0 1 .641-5.407c.039-.134.058-.27.058-.41V81.53l-.922-56.643h34.148l.841-4.747s-5.565-.704-14.602-4.005Z"/>
  <path stroke="#000" stroke-miterlimit="10" stroke-width=".557" d="M169.911 69.543h-35.844s6.863 9.44 17.568 9.44c10.705 0 15.064-6.044 18.276-9.44Zm-2.281 0-14.168-44.58c-.008-.024-.044-.027-.053-.002l-17.192 44.582h31.413Z"/>
</svg>
